<svg width="200" height="222" viewBox="0 0 200 222" fill="none" xmlns="http://www.w3.org/2000/svg">
<g filter="url(#filter0_i_241_67)">
<path d="M0 32.1579C10.2694 32.1579 20.5389 32.1579 31.1195 32.1579C36.4277 38.2802 36.4277 38.2802 38.8446 41.2935C40.0129 42.7452 41.211 44.1774 42.4099 45.6096C42.6346 45.8782 42.8593 46.1467 43.0909 46.4233C43.7807 47.2471 44.471 48.0706 45.1613 48.8941C48.8229 53.2632 52.4501 57.6526 56.0475 62.063C59.0172 65.7078 59.0172 65.7078 62.0493 69.3123C62.4405 69.7738 62.4405 69.7738 62.8395 70.2446C63.3526 70.8495 63.8706 71.4505 64.3936 72.0488C65.0971 72.8549 65.7913 73.6669 66.4848 74.4796C66.7133 74.7375 66.9417 74.9953 67.1771 75.2609C67.3845 75.5066 67.592 75.7523 67.8057 76.0055C67.9946 76.2236 68.1835 76.4417 68.3782 76.6664C68.6907 77.3457 68.6907 77.3457 68.4354 78.1794C67.9543 78.9817 67.4471 79.6847 66.8287 80.4092C66.6109 80.6667 66.393 80.9242 66.1685 81.1894C65.8202 81.5961 65.8202 81.5961 65.4649 82.011C64.9815 82.5844 64.4982 83.158 64.0151 83.7316C63.3609 84.5046 62.706 85.277 62.0467 86.0466C57.6254 91.2144 54.4144 96.6585 54.056 103.224C54.0396 103.504 54.0232 103.784 54.0063 104.072C53.9663 104.759 53.9279 105.445 53.8899 106.132C52.3579 104.896 51.2108 103.446 50 101.969C48.0384 99.5974 46.0471 97.249 44.0228 94.9188C40.6434 91.0236 37.3479 87.0763 34.0778 83.1094C33.6719 82.6172 33.6719 82.6172 33.2579 82.115C33.0532 81.8666 32.8485 81.6183 32.6376 81.3624C32.6391 81.7478 32.6407 82.1332 32.6422 82.5302C32.678 91.6841 32.6942 100.838 32.6863 109.992C32.6854 111.119 32.6846 112.247 32.6839 113.374C32.6837 113.711 32.6837 113.711 32.6835 114.054C32.6816 117.685 32.6931 121.316 32.7096 124.948C32.7262 128.675 32.7281 132.403 32.7172 136.13C32.7116 138.223 32.7126 140.316 32.7296 142.409C32.7454 144.38 32.7433 146.35 32.7277 148.321C32.7251 149.044 32.729 149.767 32.7398 150.489C32.8166 155.95 32.8166 155.95 31.4221 157.762C30.4756 158.524 29.5616 159.111 28.463 159.688C28.0878 159.964 27.7126 160.239 27.326 160.524C27.0202 160.738 26.7145 160.952 26.3994 161.173C24.5877 162.466 22.8714 163.83 21.1575 165.221C19.8058 166.292 18.3963 167.291 16.9829 168.297C15.9085 169.083 14.879 169.9 13.852 170.734C12.1567 172.11 10.4045 173.401 8.61154 174.676C7.5951 175.416 6.61837 176.184 5.64516 176.968C0.903412 180.776 0.903413 180.776 0 180.776C0 131.732 0 82.6879 0 32.1579Z" fill="url(#paint0_radial_241_67)"/>
</g>
<g filter="url(#filter1_i_241_67)">
<path d="M168.881 32.1579C179.15 32.1579 189.419 32.1579 200 32.1579C200 81.2018 200 130.246 200 180.776C197.866 179.646 197.866 179.646 196.872 178.875C196.651 178.704 196.429 178.533 196.201 178.357C195.968 178.175 195.734 177.993 195.493 177.805C194.985 177.412 194.477 177.02 193.968 176.627C193.709 176.426 193.451 176.226 193.184 176.019C191.974 175.083 190.757 174.153 189.54 173.223C189.305 173.044 189.07 172.864 188.827 172.678C186.361 170.794 183.883 168.922 181.404 167.052C178.39 164.777 175.381 162.497 172.386 160.203C172.165 160.034 171.944 159.865 171.717 159.691C171.413 159.453 171.413 159.453 171.103 159.21C170.417 158.681 170.417 158.681 169.701 158.255C168.685 157.603 167.888 157.077 167.497 155.998C167.401 155.182 167.39 154.395 167.408 153.575C167.402 153.111 167.402 153.111 167.397 152.638C167.387 151.603 167.396 150.569 167.406 149.534C167.403 148.792 167.399 148.049 167.393 147.307C167.382 145.293 167.388 143.278 167.396 141.264C167.402 139.158 167.393 137.053 167.385 134.948C167.375 131.414 167.374 127.88 167.38 124.347C167.385 120.708 167.386 117.068 167.379 113.429C167.378 113.205 167.378 112.98 167.377 112.749C167.375 111.623 167.373 110.497 167.371 109.371C167.351 100.035 167.351 90.6988 167.363 81.3624C167.21 81.5449 167.058 81.7275 166.901 81.9155C166.204 82.7509 165.507 83.5861 164.81 84.4214C164.451 84.852 164.451 84.852 164.084 85.2914C162.416 87.289 160.729 89.2707 159.013 91.2368C156.183 94.4981 153.415 97.7971 150.664 101.111C150.245 101.615 149.825 102.12 149.406 102.624C148.433 103.793 147.461 104.962 146.49 106.132C146.239 106.022 145.989 105.911 145.731 105.797C145.748 105.445 145.766 105.092 145.784 104.729C146.081 96.2645 141.799 90.3196 136.148 83.8063C135.102 82.5924 134.084 81.3603 133.065 80.1281C132.722 79.7153 132.379 79.3026 132.036 78.8899C131.796 78.6012 131.556 78.3126 131.309 78.0152C132.464 76.1383 133.796 74.4505 135.247 72.7433C135.724 72.1771 136.201 71.611 136.677 71.0448C136.92 70.7573 137.163 70.4697 137.414 70.1735C138.554 68.8225 139.688 67.4673 140.821 66.1115C141.04 65.8489 141.26 65.5862 141.486 65.3157C144.019 62.2817 146.516 59.2248 149.008 56.1651C151.361 53.277 153.733 50.4047 156.161 47.5659C157.772 45.6792 159.341 43.7674 160.903 41.8498C162.721 39.6217 164.565 37.4114 166.417 35.2053C166.628 34.9526 166.84 34.6999 167.059 34.4395C167.246 34.2167 167.433 33.9938 167.626 33.7643C168.059 33.2381 168.472 32.6989 168.881 32.1579Z" fill="url(#paint1_radial_241_67)"/>
</g>
<g filter="url(#filter2_di_241_67)">
<path d="M91.2301 124.45C91.8439 124.445 91.8439 124.445 92.4701 124.44C92.9105 124.441 93.3509 124.441 93.8047 124.441C94.4869 124.439 94.4869 124.439 95.183 124.437C96.1454 124.435 97.1079 124.435 98.0703 124.436C99.5395 124.437 101.009 124.43 102.478 124.421C103.413 124.42 104.349 124.42 105.285 124.42C105.942 124.416 105.942 124.416 106.612 124.411C109.55 124.426 111.547 124.599 113.779 126.412C114.903 127.729 115.117 129.179 115.394 130.776C115.517 131.408 115.641 132.04 115.766 132.672C115.826 132.992 115.886 133.311 115.949 133.64C118.354 146.229 123.046 157.083 132.437 166.909C132.923 167.422 133.394 167.945 133.846 168.481C134.454 169.222 134.454 169.222 135.484 170.065C136.628 170.143 136.628 170.143 137.761 169.73C142.091 168.501 146.542 168.662 150.664 170.399C151.768 170.992 152.738 171.648 153.7 172.408C154.021 172.656 154.342 172.905 154.672 173.161C157.647 176.12 160.152 179.701 160.152 183.788C160.559 183.768 160.966 183.747 161.385 183.725C165.817 183.746 169.733 185.248 172.96 187.889C175.237 190.062 176.552 192.46 177.561 195.253C177.643 195.478 177.725 195.703 177.809 195.936C178.266 197.286 178.4 198.454 178.368 199.855C174.613 199.886 170.859 199.91 167.104 199.924C165.36 199.931 163.616 199.941 161.872 199.956C160.184 199.971 158.496 199.979 156.807 199.982C156.168 199.984 155.529 199.989 154.89 199.997C146.292 200.091 139.364 198.129 133.079 192.734C118.811 179.443 110.945 155.964 108.159 138.266C107.632 158.746 113.801 182.104 129.077 198.089C129.791 198.851 129.791 198.851 130.55 199.855C110.387 199.855 90.2237 199.855 69.4495 199.855C70.2403 198.693 70.7744 197.947 71.774 197.01C73.6119 195.185 75.155 193.195 76.6602 191.152C76.8886 190.844 76.8886 190.844 77.1216 190.529C83.8943 181.244 87.2211 170.35 89.9429 159.688C90.0686 159.217 90.1946 158.746 90.3209 158.275C92.1125 151.144 92.4115 143.867 92.2199 136.592C92.1898 136.793 92.1597 136.994 92.1287 137.201C89.7742 152.446 83.6366 166.734 75.9011 180.441C75.745 180.72 75.5889 180.998 75.4281 181.285C71.122 188.916 65.5469 195.754 56.1668 198.851C51.9731 199.868 47.9293 199.991 43.609 199.953C42.9705 199.951 42.332 199.95 41.6934 199.949C40.0332 199.945 38.3732 199.935 36.713 199.924C35.0108 199.914 33.3086 199.909 31.6064 199.904C28.2814 199.893 24.9566 199.876 21.6317 199.855C21.6857 199.268 21.7416 198.681 21.7982 198.095C21.8446 197.605 21.8446 197.605 21.8919 197.105C22.2893 194.003 23.8106 191.101 26.1858 188.809C26.4771 188.507 26.4771 188.507 26.7743 188.198C29.2797 185.767 32.7113 184.125 36.4325 183.788C37.7008 183.744 38.9593 183.746 40.2275 183.788C40.1962 183.429 40.1649 183.07 40.1327 182.7C40.1645 178.722 42.5634 175.568 45.4932 172.72C48.9096 169.814 53.2439 168.968 57.8271 168.981C59.4106 169.072 60.7315 169.378 62.2063 169.878C63.1887 170.11 63.5832 170.094 64.5159 169.73C68.0069 166.975 70.6866 163.453 73.2446 160.023C73.4165 159.793 73.5884 159.563 73.7655 159.326C76.5555 155.53 78.4188 151.573 80.0757 147.303C80.1793 147.049 80.2829 146.795 80.3896 146.532C82.2127 142.028 83.0396 137.393 83.8361 132.68C83.8807 132.423 83.9253 132.167 83.9713 131.902C84.0548 131.42 84.1352 130.936 84.2117 130.452C84.5387 128.574 85.091 127.102 86.6934 125.797C88.2746 124.845 89.2952 124.458 91.2301 124.45Z" fill="url(#paint2_linear_241_67)" shape-rendering="crispEdges"/>
</g>
<g filter="url(#filter3_i_241_67)">
<g clip-path="url(#paint3_diamond_241_67_clip_path)" data-figma-skip-parse="true"><g transform="matrix(0.00117663 -0.0986274 0.0174144 0.000207755 98.8235 115.294)"><rect x="0" y="0" width="1174.13" height="2527.41" fill="url(#paint3_diamond_241_67)" opacity="1" shape-rendering="crispEdges"/><rect x="0" y="0" width="1174.13" height="2527.41" transform="scale(1 -1)" fill="url(#paint3_diamond_241_67)" opacity="1" shape-rendering="crispEdges"/><rect x="0" y="0" width="1174.13" height="2527.41" transform="scale(-1 1)" fill="url(#paint3_diamond_241_67)" opacity="1" shape-rendering="crispEdges"/><rect x="0" y="0" width="1174.13" height="2527.41" transform="scale(-1)" fill="url(#paint3_diamond_241_67)" opacity="1" shape-rendering="crispEdges"/></g></g><path fill-rule="evenodd" clip-rule="evenodd" d="M93.5443 4.26069C95.6803 1.80536 97.6611 -0.248241 101.372 0.0243612C105.396 1.64472 108.051 6.17829 110.409 9.31244C110.556 9.50644 110.702 9.70241 110.853 9.90228C115.666 16.2978 119.566 23.0001 121.937 30.4013C122.027 30.6796 122.117 30.9593 122.21 31.246C123.95 36.9543 124.282 42.4659 124.183 48.3495C124.163 49.6294 124.153 50.9094 124.148 52.1894C124.145 52.8467 124.145 52.8477 124.142 53.5175C124.14 53.8494 124.141 53.851 124.14 54.1894C124.126 57.1576 124.101 60.1267 124.05 63.0946C124.012 65.3307 123.999 67.5663 124.001 69.8026C123.998 70.6473 123.986 71.4933 123.964 72.3378C123.851 76.8855 123.881 80.2865 127.536 83.7313C127.961 84.1051 128.392 84.4759 128.827 84.8397C129.84 85.7106 130.72 86.6746 131.615 87.6386C132.615 88.6859 133.624 89.7263 134.654 90.7518C138.902 95.0636 140.421 99.057 141.033 104.636C141.082 105.071 141.132 105.508 141.183 105.957C141.287 106.877 141.39 107.797 141.492 108.717C141.621 109.89 141.752 111.063 141.886 112.236C142.014 113.363 142.141 114.491 142.267 115.618C142.314 116.036 142.361 116.455 142.409 116.886C142.629 118.89 142.794 120.855 142.738 122.869C139.987 121.651 137.444 120.236 134.898 118.721C131.824 116.892 128.729 115.092 125.63 113.296C124.718 112.767 123.806 112.237 122.894 111.708C122.326 111.379 121.757 111.05 121.189 110.721C120.924 110.567 120.659 110.412 120.386 110.254C119.07 109.485 119.07 109.485 117.691 108.81C117.64 109.218 117.59 109.625 117.538 110.045C117.471 110.588 117.403 111.133 117.335 111.677C117.286 112.078 117.284 112.079 117.234 112.488C117.184 112.884 117.185 112.885 117.134 113.289C117.104 113.529 117.075 113.768 117.044 114.015C116.899 115.072 116.723 116.125 116.552 117.179H83.5345C82.3961 111.154 82.3958 111.153 82.3958 108.81C79.219 110.541 76.0628 112.292 72.9642 114.13C70.7222 115.458 68.4602 116.759 66.1966 118.057C63.2356 119.757 60.2798 121.463 57.349 123.203C56.7287 122.108 57.0945 120.935 57.2376 119.749C57.2698 119.467 57.3022 119.185 57.3353 118.894C57.4405 117.974 57.5491 117.053 57.6576 116.133C57.8035 114.875 57.9473 113.616 58.0911 112.358C58.1267 112.049 58.162 111.74 58.1986 111.422C58.4341 109.347 58.6261 107.273 58.7884 105.192C59.344 98.1673 62.1043 93.8785 67.3431 88.6864C68.3014 87.7329 69.2439 86.7664 70.181 85.7968C70.4884 85.4813 70.7959 85.1658 71.1126 84.8407C71.2706 84.6621 71.4304 84.4837 71.5931 84.2997C72.1504 83.7063 72.1508 83.7063 72.9036 83.0927C76.3505 79.8485 75.582 75.5931 75.5247 71.4306C75.5247 70.5829 75.5257 69.7333 75.5286 68.8856C75.5325 66.8845 75.5248 64.8838 75.5091 62.8827C75.4798 59.1031 75.4775 55.3216 75.4798 51.5419C75.4779 50.313 75.4678 49.0842 75.4564 47.8554C75.3686 31.5794 81.9648 17.8522 92.9505 4.96186C93.2434 4.61501 93.2457 4.61426 93.5443 4.26069ZM110.045 35.6503C106.765 33.0799 102.924 31.7993 98.7357 32.0253C95.5032 32.3426 92.8514 33.3549 90.2679 35.3251C87.3285 37.9962 85.2332 41.0416 85.0081 45.0478C84.8908 50.5978 86.0847 54.6921 90.0892 58.8105C93.1615 60.7865 95.982 61.9606 99.6898 61.9999C104.519 61.8665 107.963 60.223 111.368 56.8905C114.274 53.3168 115.074 49.6834 114.995 45.1903C114.692 41.687 112.605 38.0395 110.045 35.6503Z" data-figma-gradient-fill="{&#34;type&#34;:&#34;GRADIENT_DIAMOND&#34;,&#34;stops&#34;:[{&#34;color&#34;:{&#34;r&#34;:0.15686275064945221,&#34;g&#34;:0.38431373238563538,&#34;b&#34;:0.50588238239288330,&#34;a&#34;:1.0},&#34;position&#34;:0.0},{&#34;color&#34;:{&#34;r&#34;:0.15686275064945221,&#34;g&#34;:0.38431373238563538,&#34;b&#34;:0.50588238239288330,&#34;a&#34;:1.0},&#34;position&#34;:0.50},{&#34;color&#34;:{&#34;r&#34;:0.094117648899555206,&#34;g&#34;:0.23137255012989044,&#34;b&#34;:0.30588236451148987,&#34;a&#34;:1.0},&#34;position&#34;:1.0}],&#34;stopsVar&#34;:[{&#34;color&#34;:{&#34;r&#34;:0.15686275064945221,&#34;g&#34;:0.38431373238563538,&#34;b&#34;:0.50588238239288330,&#34;a&#34;:1.0},&#34;position&#34;:0.0},{&#34;color&#34;:{&#34;r&#34;:0.15686275064945221,&#34;g&#34;:0.38431373238563538,&#34;b&#34;:0.50588238239288330,&#34;a&#34;:1.0},&#34;position&#34;:0.50},{&#34;color&#34;:{&#34;r&#34;:0.094117648899555206,&#34;g&#34;:0.23137255012989044,&#34;b&#34;:0.30588236451148987,&#34;a&#34;:1.0},&#34;position&#34;:1.0}],&#34;transform&#34;:{&#34;m00&#34;:2.3532602787017822,&#34;m01&#34;:34.828849792480469,&#34;m02&#34;:80.232429504394531,&#34;m10&#34;:-197.25480651855469,&#34;m11&#34;:0.41550996899604797,&#34;m12&#34;:213.71369934082031},&#34;opacity&#34;:1.0,&#34;blendMode&#34;:&#34;NORMAL&#34;,&#34;visible&#34;:true}"/>
</g>
<g filter="url(#filter4_if_241_67)">
<circle cx="98.8235" cy="47.0588" r="15.2941" stroke="black" stroke-opacity="0.5" stroke-width="2.35294"/>
</g>
<defs>
<filter id="filter0_i_241_67" x="0" y="32.1579" width="68.6202" height="153.324" filterUnits="userSpaceOnUse" color-interpolation-filters="sRGB">
<feFlood flood-opacity="0" result="BackgroundImageFix"/>
<feBlend mode="normal" in="SourceGraphic" in2="BackgroundImageFix" result="shape"/>
<feColorMatrix in="SourceAlpha" type="matrix" values="0 0 0 0 0 0 0 0 0 0 0 0 0 0 0 0 0 0 127 0" result="hardAlpha"/>
<feOffset dy="4.70588"/>
<feGaussianBlur stdDeviation="4.70588"/>
<feComposite in2="hardAlpha" operator="arithmetic" k2="-1" k3="1"/>
<feColorMatrix type="matrix" values="0 0 0 0 0 0 0 0 0 0 0 0 0 0 0 0 0 0 0.2 0"/>
<feBlend mode="plus-darker" in2="shape" result="effect1_innerShadow_241_67"/>
</filter>
<filter id="filter1_i_241_67" x="131.309" y="32.1579" width="68.6907" height="153.324" filterUnits="userSpaceOnUse" color-interpolation-filters="sRGB">
<feFlood flood-opacity="0" result="BackgroundImageFix"/>
<feBlend mode="normal" in="SourceGraphic" in2="BackgroundImageFix" result="shape"/>
<feColorMatrix in="SourceAlpha" type="matrix" values="0 0 0 0 0 0 0 0 0 0 0 0 0 0 0 0 0 0 127 0" result="hardAlpha"/>
<feOffset dy="4.70588"/>
<feGaussianBlur stdDeviation="4.70588"/>
<feComposite in2="hardAlpha" operator="arithmetic" k2="-1" k3="1"/>
<feColorMatrix type="matrix" values="0 0 0 0 0 0 0 0 0 0 0 0 0 0 0 0 0 0 0.2 0"/>
<feBlend mode="plus-darker" in2="shape" result="effect1_innerShadow_241_67"/>
</filter>
<filter id="filter2_di_241_67" x="9.86701" y="122.058" width="180.27" height="99.1182" filterUnits="userSpaceOnUse" color-interpolation-filters="sRGB">
<feFlood flood-opacity="0" result="BackgroundImageFix"/>
<feColorMatrix in="SourceAlpha" type="matrix" values="0 0 0 0 0 0 0 0 0 0 0 0 0 0 0 0 0 0 127 0" result="hardAlpha"/>
<feOffset dy="9.41176"/>
<feGaussianBlur stdDeviation="5.88235"/>
<feComposite in2="hardAlpha" operator="out"/>
<feColorMatrix type="matrix" values="0 0 0 0 0 0 0 0 0 0 0 0 0 0 0 0 0 0 0.25 0"/>
<feBlend mode="normal" in2="BackgroundImageFix" result="effect1_dropShadow_241_67"/>
<feBlend mode="normal" in="SourceGraphic" in2="effect1_dropShadow_241_67" result="shape"/>
<feColorMatrix in="SourceAlpha" type="matrix" values="0 0 0 0 0 0 0 0 0 0 0 0 0 0 0 0 0 0 127 0" result="hardAlpha"/>
<feOffset dy="2.35294"/>
<feGaussianBlur stdDeviation="3.52941"/>
<feComposite in2="hardAlpha" operator="arithmetic" k2="-1" k3="1"/>
<feColorMatrix type="matrix" values="0 0 0 0 0 0 0 0 0 0 0 0 0 0 0 0 0 0 0.2 0"/>
<feBlend mode="plus-darker" in2="shape" result="effect2_innerShadow_241_67"/>
</filter>
<filter id="filter3_i_241_67" x="56.9996" y="0" width="85.7491" height="127.909" filterUnits="userSpaceOnUse" color-interpolation-filters="sRGB">
<feFlood flood-opacity="0" result="BackgroundImageFix"/>
<feBlend mode="normal" in="SourceGraphic" in2="BackgroundImageFix" result="shape"/>
<feColorMatrix in="SourceAlpha" type="matrix" values="0 0 0 0 0 0 0 0 0 0 0 0 0 0 0 0 0 0 127 0" result="hardAlpha"/>
<feOffset dy="4.70588"/>
<feGaussianBlur stdDeviation="4.70588"/>
<feComposite in2="hardAlpha" operator="arithmetic" k2="-1" k3="1"/>
<feColorMatrix type="matrix" values="0 0 0 0 0 0 0 0 0 0 0 0 0 0 0 0 0 0 0.15 0"/>
<feBlend mode="darken" in2="shape" result="effect1_innerShadow_241_67"/>
</filter>
<clipPath id="paint3_diamond_241_67_clip_path"><path fill-rule="evenodd" clip-rule="evenodd" d="M93.5443 4.26069C95.6803 1.80536 97.6611 -0.248241 101.372 0.0243612C105.396 1.64472 108.051 6.17829 110.409 9.31244C110.556 9.50644 110.702 9.70241 110.853 9.90228C115.666 16.2978 119.566 23.0001 121.937 30.4013C122.027 30.6796 122.117 30.9593 122.21 31.246C123.95 36.9543 124.282 42.4659 124.183 48.3495C124.163 49.6294 124.153 50.9094 124.148 52.1894C124.145 52.8467 124.145 52.8477 124.142 53.5175C124.14 53.8494 124.141 53.851 124.14 54.1894C124.126 57.1576 124.101 60.1267 124.05 63.0946C124.012 65.3307 123.999 67.5663 124.001 69.8026C123.998 70.6473 123.986 71.4933 123.964 72.3378C123.851 76.8855 123.881 80.2865 127.536 83.7313C127.961 84.1051 128.392 84.4759 128.827 84.8397C129.84 85.7106 130.72 86.6746 131.615 87.6386C132.615 88.6859 133.624 89.7263 134.654 90.7518C138.902 95.0636 140.421 99.057 141.033 104.636C141.082 105.071 141.132 105.508 141.183 105.957C141.287 106.877 141.39 107.797 141.492 108.717C141.621 109.89 141.752 111.063 141.886 112.236C142.014 113.363 142.141 114.491 142.267 115.618C142.314 116.036 142.361 116.455 142.409 116.886C142.629 118.89 142.794 120.855 142.738 122.869C139.987 121.651 137.444 120.236 134.898 118.721C131.824 116.892 128.729 115.092 125.63 113.296C124.718 112.767 123.806 112.237 122.894 111.708C122.326 111.379 121.757 111.05 121.189 110.721C120.924 110.567 120.659 110.412 120.386 110.254C119.07 109.485 119.07 109.485 117.691 108.81C117.64 109.218 117.59 109.625 117.538 110.045C117.471 110.588 117.403 111.133 117.335 111.677C117.286 112.078 117.284 112.079 117.234 112.488C117.184 112.884 117.185 112.885 117.134 113.289C117.104 113.529 117.075 113.768 117.044 114.015C116.899 115.072 116.723 116.125 116.552 117.179H83.5345C82.3961 111.154 82.3958 111.153 82.3958 108.81C79.219 110.541 76.0628 112.292 72.9642 114.13C70.7222 115.458 68.4602 116.759 66.1966 118.057C63.2356 119.757 60.2798 121.463 57.349 123.203C56.7287 122.108 57.0945 120.935 57.2376 119.749C57.2698 119.467 57.3022 119.185 57.3353 118.894C57.4405 117.974 57.5491 117.053 57.6576 116.133C57.8035 114.875 57.9473 113.616 58.0911 112.358C58.1267 112.049 58.162 111.74 58.1986 111.422C58.4341 109.347 58.6261 107.273 58.7884 105.192C59.344 98.1673 62.1043 93.8785 67.3431 88.6864C68.3014 87.7329 69.2439 86.7664 70.181 85.7968C70.4884 85.4813 70.7959 85.1658 71.1126 84.8407C71.2706 84.6621 71.4304 84.4837 71.5931 84.2997C72.1504 83.7063 72.1508 83.7063 72.9036 83.0927C76.3505 79.8485 75.582 75.5931 75.5247 71.4306C75.5247 70.5829 75.5257 69.7333 75.5286 68.8856C75.5325 66.8845 75.5248 64.8838 75.5091 62.8827C75.4798 59.1031 75.4775 55.3216 75.4798 51.5419C75.4779 50.313 75.4678 49.0842 75.4564 47.8554C75.3686 31.5794 81.9648 17.8522 92.9505 4.96186C93.2434 4.61501 93.2457 4.61426 93.5443 4.26069ZM110.045 35.6503C106.765 33.0799 102.924 31.7993 98.7357 32.0253C95.5032 32.3426 92.8514 33.3549 90.2679 35.3251C87.3285 37.9962 85.2332 41.0416 85.0081 45.0478C84.8908 50.5978 86.0847 54.6921 90.0892 58.8105C93.1615 60.7865 95.982 61.9606 99.6898 61.9999C104.519 61.8665 107.963 60.223 111.368 56.8905C114.274 53.3168 115.074 49.6834 114.995 45.1903C114.692 41.687 112.605 38.0395 110.045 35.6503Z"/></clipPath><filter id="filter4_if_241_67" x="72.9411" y="21.1765" width="51.7647" height="56.4706" filterUnits="userSpaceOnUse" color-interpolation-filters="sRGB">
<feFlood flood-opacity="0" result="BackgroundImageFix"/>
<feBlend mode="normal" in="SourceGraphic" in2="BackgroundImageFix" result="shape"/>
<feColorMatrix in="SourceAlpha" type="matrix" values="0 0 0 0 0 0 0 0 0 0 0 0 0 0 0 0 0 0 127 0" result="hardAlpha"/>
<feOffset dy="14.1176"/>
<feGaussianBlur stdDeviation="7.05882"/>
<feComposite in2="hardAlpha" operator="arithmetic" k2="-1" k3="1"/>
<feColorMatrix type="matrix" values="0 0 0 0 0 0 0 0 0 0 0 0 0 0 0 0 0 0 0.25 0"/>
<feBlend mode="normal" in2="shape" result="effect1_innerShadow_241_67"/>
<feGaussianBlur stdDeviation="4.70588" result="effect2_foregroundBlur_241_67"/>
</filter>
<radialGradient id="paint0_radial_241_67" cx="0" cy="0" r="1" gradientUnits="userSpaceOnUse" gradientTransform="translate(34.3101 106.467) rotate(90) scale(74.3089 34.3101)">
<stop offset="0.5" stop-color="#183B4E"/>
<stop offset="1" stop-color="#286281"/>
</radialGradient>
<radialGradient id="paint1_radial_241_67" cx="0" cy="0" r="1" gradientUnits="userSpaceOnUse" gradientTransform="translate(165.655 106.467) rotate(90) scale(74.3089 34.3453)">
<stop offset="0.5" stop-color="#183B4E"/>
<stop offset="1" stop-color="#286281"/>
</radialGradient>
<linearGradient id="paint2_linear_241_67" x1="113.331" y1="100" x2="100.002" y2="200" gradientUnits="userSpaceOnUse">
<stop offset="0.629808" stop-color="#36A49F"/>
<stop offset="0.741329" stop-color="#36A49F" stop-opacity="0.59"/>
</linearGradient>
<linearGradient id="paint3_diamond_241_67" x1="0" y1="0" x2="500" y2="500" gradientUnits="userSpaceOnUse">
<stop stop-color="#286281"/>
<stop offset="0.5" stop-color="#286281"/>
<stop offset="1" stop-color="#183B4E"/>
</linearGradient>
</defs>
</svg>
