<svg width="200" height="200" viewBox="0 0 200 200" fill="none" xmlns="http://www.w3.org/2000/svg">
<path d="M0 32.1578C10.2694 32.1578 20.5389 32.1578 31.1195 32.1578C36.4277 38.2802 36.4277 38.2802 38.8446 41.2935C40.0129 42.7452 41.211 44.1774 42.4099 45.6096C42.6346 45.8781 42.8593 46.1466 43.0909 46.4233C43.7807 47.2471 44.471 48.0706 45.1613 48.8941C48.8229 53.2632 52.4501 57.6525 56.0475 62.0629C59.0172 65.7078 59.0172 65.7078 62.0493 69.3123C62.4405 69.7738 62.4405 69.7738 62.8395 70.2446C63.3526 70.8495 63.8706 71.4505 64.3936 72.0488C65.0971 72.8549 65.7913 73.6668 66.4848 74.4796C66.7133 74.7374 66.9417 74.9952 67.1771 75.2609C67.3845 75.5066 67.592 75.7523 67.8057 76.0055C67.9946 76.2236 68.1835 76.4417 68.3782 76.6664C68.6907 77.3457 68.6907 77.3457 68.4354 78.1794C67.9543 78.9817 67.4471 79.6846 66.8288 80.4092C66.6109 80.6667 66.393 80.9241 66.1685 81.1894C65.8202 81.5961 65.8202 81.5961 65.4649 82.0109C64.9815 82.5844 64.4982 83.158 64.0151 83.7316C63.3609 84.5046 62.706 85.277 62.0467 86.0466C57.6254 91.2144 54.4144 96.6584 54.056 103.224C54.0396 103.504 54.0232 103.784 54.0063 104.072C53.9663 104.759 53.9279 105.445 53.8899 106.132C52.3579 104.896 51.2108 103.446 50 101.969C48.0384 99.5973 46.047 97.249 44.0228 94.9188C40.6434 91.0236 37.3479 87.0762 34.0778 83.1094C33.6719 82.6172 33.6719 82.6172 33.2579 82.115C33.0532 81.8666 32.8485 81.6183 32.6376 81.3624C32.6391 81.7478 32.6407 82.1331 32.6422 82.5302C32.678 91.6841 32.6942 100.838 32.6863 109.992C32.6854 111.119 32.6846 112.247 32.6839 113.374C32.6837 113.711 32.6837 113.711 32.6835 114.054C32.6816 117.685 32.6931 121.316 32.7096 124.948C32.7262 128.675 32.7281 132.403 32.7172 136.13C32.7116 138.223 32.7126 140.316 32.7296 142.409C32.7454 144.38 32.7433 146.35 32.7277 148.321C32.7251 149.044 32.729 149.767 32.7398 150.489C32.8166 155.95 32.8166 155.95 31.4221 157.762C30.4756 158.524 29.5616 159.111 28.463 159.688C28.0878 159.964 27.7126 160.239 27.326 160.524C27.0202 160.738 26.7145 160.952 26.3994 161.173C24.5877 162.466 22.8714 163.83 21.1575 165.221C19.8058 166.292 18.3963 167.291 16.9829 168.297C15.9085 169.083 14.879 169.9 13.852 170.734C12.1567 172.11 10.4045 173.401 8.61154 174.676C7.59511 175.416 6.61837 176.184 5.64516 176.968C0.903412 180.776 0.903413 180.776 0 180.776C0 131.732 0 82.6879 0 32.1578Z" fill="white"/>
<path d="M168.88 32.1578C179.15 32.1578 189.419 32.1578 200 32.1578C200 81.2017 200 130.246 200 180.776C197.866 179.646 197.866 179.646 196.872 178.875C196.651 178.704 196.429 178.533 196.201 178.357C195.968 178.175 195.734 177.993 195.493 177.805C194.985 177.412 194.476 177.02 193.968 176.627C193.709 176.426 193.451 176.226 193.184 176.019C191.974 175.083 190.757 174.153 189.54 173.223C189.305 173.044 189.069 172.864 188.827 172.678C186.361 170.794 183.883 168.923 181.404 167.052C178.39 164.778 175.381 162.497 172.386 160.203C172.165 160.034 171.944 159.865 171.716 159.691C171.413 159.453 171.413 159.453 171.102 159.21C170.417 158.681 170.417 158.681 169.7 158.255C168.685 157.603 167.887 157.077 167.496 155.998C167.401 155.182 167.39 154.395 167.408 153.575C167.402 153.111 167.402 153.111 167.397 152.638C167.387 151.603 167.396 150.569 167.406 149.534C167.403 148.792 167.398 148.049 167.393 147.307C167.382 145.293 167.388 143.278 167.396 141.264C167.402 139.159 167.393 137.053 167.385 134.948C167.375 131.414 167.374 127.88 167.379 124.347C167.385 120.708 167.386 117.068 167.379 113.429C167.378 113.205 167.378 112.98 167.377 112.749C167.375 111.623 167.373 110.497 167.37 109.371C167.351 100.035 167.351 90.6988 167.362 81.3624C167.21 81.5449 167.058 81.7275 166.901 81.9155C166.204 82.7509 165.507 83.5861 164.81 84.4213C164.45 84.852 164.45 84.852 164.084 85.2914C162.416 87.289 160.729 89.2707 159.013 91.2368C156.183 94.4981 153.414 97.7971 150.664 101.111C150.245 101.615 149.825 102.12 149.406 102.624C148.433 103.793 147.461 104.962 146.49 106.132C146.239 106.022 145.989 105.911 145.731 105.797C145.748 105.445 145.766 105.092 145.784 104.729C146.081 96.2645 141.799 90.3195 136.148 83.8063C135.101 82.5924 134.083 81.3602 133.065 80.1281C132.722 79.7153 132.379 79.3026 132.036 78.8899C131.796 78.6012 131.556 78.3126 131.309 78.0152C132.463 76.1382 133.796 74.4505 135.247 72.7432C135.724 72.1771 136.2 71.6109 136.677 71.0448C136.92 70.7572 137.163 70.4697 137.413 70.1735C138.554 68.8225 139.688 67.4673 140.821 66.1115C141.04 65.8489 141.26 65.5862 141.486 65.3156C144.019 62.2817 146.516 59.2247 149.008 56.165C151.361 53.277 153.733 50.4047 156.161 47.5659C157.772 45.6792 159.34 43.7673 160.903 41.8497C162.721 39.6217 164.565 37.4114 166.416 35.2053C166.628 34.9525 166.84 34.6998 167.059 34.4395C167.246 34.2166 167.433 33.9938 167.626 33.7642C168.059 33.238 168.472 32.6988 168.88 32.1578Z" fill="white"/>
<path d="M91.2303 124.45C91.8441 124.445 91.844 124.445 92.4702 124.44C92.9106 124.441 93.3511 124.441 93.8048 124.441C94.4871 124.439 94.4871 124.439 95.1831 124.437C96.1456 124.435 97.108 124.435 98.0704 124.436C99.5397 124.437 101.009 124.43 102.478 124.421C103.414 124.42 104.349 124.42 105.285 124.42C105.942 124.416 105.942 124.416 106.612 124.411C109.551 124.426 111.547 124.599 113.779 126.412C114.903 127.729 115.117 129.179 115.394 130.776C115.517 131.408 115.641 132.04 115.766 132.672C115.826 132.992 115.886 133.311 115.949 133.64C118.354 146.229 123.046 157.084 132.437 166.909C132.923 167.422 133.395 167.945 133.846 168.481C134.454 169.222 134.454 169.222 135.484 170.065C136.628 170.143 136.628 170.143 137.761 169.73C142.092 168.501 146.542 168.662 150.664 170.399C151.768 170.992 152.738 171.648 153.7 172.408C154.021 172.656 154.342 172.905 154.673 173.161C157.647 176.121 160.152 179.701 160.152 183.788C160.559 183.768 160.966 183.747 161.385 183.726C165.817 183.746 169.733 185.248 172.96 187.889C175.237 190.062 176.552 192.46 177.562 195.253C177.643 195.478 177.725 195.703 177.809 195.936C178.266 197.286 178.4 198.454 178.368 199.855C174.613 199.886 170.859 199.91 167.104 199.924C165.36 199.931 163.616 199.941 161.872 199.956C160.184 199.971 158.496 199.979 156.808 199.982C156.169 199.985 155.53 199.989 154.891 199.997C146.292 200.091 139.364 198.129 133.079 192.734C118.811 179.443 110.945 155.964 108.159 138.266C107.632 158.746 113.801 182.104 129.077 198.089C129.791 198.851 129.791 198.851 130.55 199.855C110.387 199.855 90.2239 199.855 69.4497 199.855C70.2404 198.693 70.7746 197.947 71.7741 197.01C73.6121 195.185 75.1551 193.195 76.6603 191.152C76.8887 190.844 76.8887 190.844 77.1217 190.529C83.8944 181.244 87.2213 170.35 89.943 159.688C90.0687 159.217 90.1947 158.746 90.321 158.275C92.1126 151.144 92.4116 143.867 92.2201 136.592C92.19 136.793 92.1599 136.994 92.1289 137.201C89.7744 152.446 83.6367 166.734 75.9013 180.441C75.7452 180.72 75.589 180.998 75.4282 181.285C71.1221 188.916 65.547 195.754 56.1669 198.851C51.9733 199.868 47.9295 199.991 43.6091 199.953C42.9706 199.951 42.3321 199.95 41.6936 199.949C40.0334 199.945 38.3733 199.935 36.7132 199.924C35.011 199.914 33.3087 199.909 31.6065 199.904C28.2815 199.893 24.9567 199.876 21.6318 199.855C21.6858 199.268 21.7417 198.681 21.7983 198.095C21.8447 197.605 21.8447 197.605 21.892 197.105C22.2895 194.003 23.8107 191.101 26.1859 188.809C26.4772 188.507 26.4772 188.507 26.7744 188.199C29.2799 185.767 32.7114 184.125 36.4326 183.788C37.7009 183.744 38.9594 183.746 40.2277 183.788C40.1963 183.429 40.165 183.07 40.1328 182.7C40.1646 178.722 42.5635 175.568 45.4933 172.72C48.9098 169.814 53.244 168.968 57.8273 168.981C59.4108 169.072 60.7317 169.378 62.2064 169.878C63.1888 170.11 63.5833 170.094 64.5161 169.73C68.007 166.975 70.6867 163.453 73.2447 160.023C73.4166 159.793 73.5885 159.563 73.7656 159.326C76.5557 155.53 78.4189 151.573 80.0758 147.303C80.1794 147.049 80.283 146.795 80.3898 146.532C82.2129 142.028 83.0397 137.393 83.8363 132.68C83.8809 132.423 83.9254 132.167 83.9714 131.902C84.055 131.42 84.1354 130.936 84.2119 130.452C84.5389 128.574 85.0911 127.102 86.6935 125.797C88.2747 124.845 89.2953 124.458 91.2303 124.45Z" fill="white"/>
<path fill-rule="evenodd" clip-rule="evenodd" d="M93.5442 4.26063C95.6802 1.8053 97.661 -0.248303 101.372 0.0243002C105.396 1.64466 108.05 6.17824 110.409 9.31239C110.556 9.50638 110.702 9.70236 110.853 9.90223C115.666 16.2978 119.566 23 121.937 30.4013C122.027 30.6795 122.117 30.9593 122.21 31.246C123.95 36.9542 124.282 42.4659 124.183 48.3495C124.163 49.6293 124.153 50.9094 124.148 52.1893C124.145 52.8466 124.145 52.8477 124.142 53.5175C124.14 53.8494 124.141 53.851 124.14 54.1893C124.126 57.1576 124.101 60.1266 124.05 63.0946C124.012 65.3307 123.999 67.5663 124.001 69.8026C123.998 70.6473 123.986 71.4933 123.964 72.3378C123.85 76.8855 123.881 80.2865 127.536 83.7313C127.961 84.1051 128.392 84.4759 128.827 84.8397C129.84 85.7106 130.72 86.6746 131.614 87.6386C132.615 88.6859 133.624 89.7263 134.654 90.7518C138.902 95.0636 140.421 99.057 141.032 104.636C141.082 105.071 141.132 105.508 141.183 105.957C141.287 106.877 141.39 107.797 141.491 108.717C141.621 109.89 141.752 111.064 141.886 112.236C142.014 113.363 142.141 114.491 142.267 115.618C142.314 116.036 142.361 116.455 142.409 116.886C142.629 118.89 142.794 120.855 142.738 122.869C139.987 121.651 137.444 120.236 134.898 118.721C131.824 116.892 128.728 115.092 125.63 113.296C124.718 112.767 123.806 112.237 122.894 111.708C122.326 111.379 121.757 111.05 121.189 110.721C120.924 110.567 120.659 110.412 120.386 110.254C119.07 109.485 119.07 109.485 117.691 108.81C117.64 109.218 117.59 109.625 117.538 110.045C117.471 110.588 117.403 111.133 117.335 111.677C117.286 112.078 117.284 112.079 117.234 112.488C117.184 112.884 117.184 112.885 117.134 113.289C117.104 113.529 117.075 113.768 117.044 114.016C116.899 115.072 116.723 116.125 116.552 117.179H83.5344C82.396 111.154 82.3957 111.153 82.3957 108.81C79.2189 110.541 76.0627 112.292 72.9641 114.13C70.7221 115.458 68.4601 116.759 66.1965 118.058C63.2355 119.757 60.2797 121.463 57.3488 123.203C56.7285 122.108 57.0943 120.935 57.2375 119.749C57.2696 119.467 57.3021 119.185 57.3352 118.894C57.4404 117.974 57.549 117.053 57.6574 116.133C57.8033 114.875 57.9471 113.616 58.091 112.358C58.1265 112.049 58.1619 111.74 58.1984 111.422C58.434 109.347 58.626 107.273 58.7883 105.192C59.3439 98.1673 62.1042 93.8785 67.343 88.6864C68.3012 87.7329 69.2437 86.7664 70.1809 85.7968C70.4883 85.4813 70.7958 85.1658 71.1125 84.8407C71.2705 84.6621 71.4302 84.4837 71.593 84.2997C72.1503 83.7063 72.1507 83.7063 72.9035 83.0927C76.3504 79.8485 75.5819 75.5931 75.5246 71.4305C75.5246 70.5829 75.5256 69.7333 75.5285 68.8856C75.5324 66.8845 75.5247 64.8838 75.509 62.8827C75.4797 59.1031 75.4774 55.3216 75.4797 51.5419C75.4778 50.313 75.4677 49.0842 75.4563 47.8554C75.3685 31.5793 81.9647 17.8521 92.9504 4.9618C93.2433 4.61495 93.2456 4.6142 93.5442 4.26063ZM110.045 35.6503C106.765 33.0798 102.924 31.7993 98.7356 32.0253C95.5031 32.3426 92.8513 33.3548 90.2678 35.3251C87.3284 37.9961 85.2331 41.0415 85.008 45.0477C84.8906 50.5978 86.0846 54.6921 90.0891 58.8104C93.1613 60.7865 95.9819 61.9606 99.6897 61.9999C104.519 61.8665 107.963 60.2229 111.367 56.8905C114.274 53.3168 115.073 49.6834 114.995 45.1903C114.692 41.687 112.605 38.0395 110.045 35.6503Z" fill="white"/>
</svg>
