<svg width="30" height="30" viewBox="0 0 30 30" fill="none" xmlns="http://www.w3.org/2000/svg">
<path d="M0 4.82368C1.54042 4.82368 3.08083 4.82368 4.66793 4.82368C5.46416 5.74204 5.46416 5.74204 5.82669 6.19403C6.00194 6.41179 6.18165 6.62662 6.36148 6.84145C6.39519 6.88173 6.4289 6.922 6.46363 6.9635C6.56711 7.08707 6.67064 7.2106 6.77419 7.33412C7.32343 7.98949 7.86751 8.64789 8.40712 9.30945C8.85258 9.85618 8.85258 9.85618 9.3074 10.3969C9.36607 10.4661 9.36607 10.4661 9.42592 10.5367C9.50289 10.6274 9.58059 10.7176 9.65905 10.8073C9.76457 10.9282 9.86869 11.05 9.97272 11.172C10.007 11.2106 10.0413 11.2493 10.0766 11.2891C10.1077 11.326 10.1388 11.3629 10.1709 11.4008C10.1992 11.4335 10.2275 11.4663 10.2567 11.5C10.3036 11.6019 10.3036 11.6019 10.2653 11.7269C10.1931 11.8473 10.1171 11.9527 10.0243 12.0614C9.99163 12.1 9.95895 12.1386 9.92527 12.1784C9.87303 12.2394 9.87303 12.2394 9.81973 12.3016C9.74722 12.3877 9.67473 12.4737 9.60226 12.5598C9.50414 12.6757 9.40591 12.7916 9.30701 12.907C8.64381 13.6822 8.16216 14.4988 8.1084 15.4836C8.10594 15.5256 8.10348 15.5676 8.10095 15.6108C8.09494 15.7138 8.08919 15.8168 8.08349 15.9198C7.85368 15.7343 7.68162 15.5169 7.5 15.2953C7.20576 14.9396 6.90706 14.5873 6.60341 14.2378C6.09651 13.6535 5.60219 13.0614 5.11166 12.4664C5.05079 12.3926 5.05079 12.3926 4.98869 12.3173C4.95798 12.28 4.92727 12.2427 4.89564 12.2044C4.89587 12.2622 4.8961 12.32 4.89634 12.3795C4.9017 13.7526 4.90413 15.1257 4.90295 16.4988C4.90281 16.6679 4.90269 16.837 4.90258 17.0061C4.90255 17.0566 4.90255 17.0566 4.90252 17.1081C4.90224 17.6528 4.90397 18.1975 4.90644 18.7421C4.90893 19.3013 4.90921 19.8604 4.90758 20.4196C4.90674 20.7335 4.9069 21.0474 4.90944 21.3614C4.9118 21.657 4.9115 21.9526 4.90915 22.2482C4.90876 22.3566 4.90934 22.465 4.91097 22.5734C4.92249 23.3925 4.92249 23.3925 4.71331 23.6642C4.57134 23.7786 4.43425 23.8667 4.26945 23.9532C4.21317 23.9946 4.15688 24.0359 4.09889 24.0785C4.05303 24.1107 4.00717 24.1429 3.95991 24.176C3.68816 24.3699 3.43071 24.5745 3.17362 24.7832C2.97086 24.9438 2.75945 25.0936 2.54744 25.2445C2.38628 25.3624 2.23185 25.485 2.0778 25.6101C1.8235 25.8165 1.56067 26.0101 1.29173 26.2014C1.13927 26.3125 0.992755 26.4276 0.846774 26.5452C0.135512 27.1164 0.135512 27.1164 0 27.1164C0 19.7598 0 12.4032 0 4.82368Z" fill="#36A49F"/>
<path d="M25.3321 4.82368C26.8725 4.82368 28.4129 4.82368 30 4.82368C30 12.1803 30 19.5369 30 27.1164C29.6799 26.9469 29.6799 26.9469 29.5308 26.8312C29.4976 26.8056 29.4644 26.78 29.4302 26.7536C29.3951 26.7263 29.3601 26.6989 29.324 26.6708C29.2478 26.6119 29.1715 26.5529 29.0952 26.494C29.0564 26.464 29.0176 26.4339 28.9777 26.4029C28.7961 26.2624 28.6136 26.123 28.431 25.9835C28.3957 25.9566 28.3604 25.9296 28.3241 25.9018C27.9542 25.6191 27.5825 25.3384 27.2106 25.0578C26.7585 24.7166 26.3072 24.3746 25.8579 24.0305C25.8247 24.0051 25.7916 23.9797 25.7575 23.9536C25.7119 23.9179 25.7119 23.9179 25.6654 23.8815C25.5625 23.8021 25.5625 23.8021 25.4551 23.7383C25.3028 23.6404 25.1831 23.5616 25.1245 23.3997C25.1101 23.2773 25.1085 23.1592 25.1112 23.0362C25.1104 22.9666 25.1104 22.9666 25.1095 22.8957C25.1081 22.7404 25.1095 22.5853 25.1108 22.4301C25.1104 22.3188 25.1098 22.2074 25.109 22.0961C25.1073 21.7939 25.1082 21.4918 25.1094 21.1896C25.1103 20.8738 25.1089 20.558 25.1078 20.2422C25.1062 19.7121 25.1061 19.1821 25.1069 18.652C25.1078 18.1061 25.1079 17.5603 25.1068 17.0144C25.1067 16.9807 25.1067 16.9471 25.1066 16.9124C25.1063 16.7435 25.1059 16.5746 25.1056 16.4057C25.1027 15.0053 25.1026 13.6048 25.1044 12.2044C25.0815 12.2317 25.0587 12.2591 25.0352 12.2873C24.9306 12.4126 24.826 12.5379 24.7215 12.6632C24.6676 12.7278 24.6676 12.7278 24.6126 12.7937C24.3624 13.0934 24.1093 13.3906 23.852 13.6855C23.4274 14.1747 23.0122 14.6696 22.5996 15.1667C22.5367 15.2423 22.4738 15.318 22.4108 15.3936C22.2649 15.5689 22.1192 15.7444 21.9735 15.9198C21.9359 15.9032 21.8983 15.8867 21.8596 15.8696C21.8622 15.8167 21.8649 15.7638 21.8676 15.7094C21.9122 14.4397 21.2699 13.5479 20.4222 12.571C20.2652 12.3889 20.1125 12.204 19.9597 12.0192C19.9083 11.9573 19.8568 11.8954 19.8054 11.8335C19.7694 11.7902 19.7335 11.7469 19.6964 11.7023C19.8695 11.4207 20.0694 11.1676 20.287 10.9115C20.3586 10.8266 20.4301 10.7416 20.5016 10.6567C20.538 10.6136 20.5745 10.5705 20.612 10.526C20.7831 10.3234 20.9532 10.1201 21.1231 9.91673C21.1561 9.87734 21.189 9.83794 21.2229 9.79735C21.6029 9.34226 21.9774 8.88372 22.3513 8.42476C22.7042 7.99156 23.0599 7.56071 23.4242 7.13489C23.6658 6.85188 23.9011 6.56511 24.1355 6.27747C24.4081 5.94326 24.6847 5.61171 24.9625 5.2808C24.9943 5.24289 25.026 5.20498 25.0588 5.16593C25.0869 5.1325 25.115 5.09908 25.1439 5.06464C25.2088 4.98571 25.2707 4.90484 25.3321 4.82368Z" fill="#36A49F"/>
<path d="M13.6845 18.6675C13.7766 18.6668 13.7766 18.6668 13.8705 18.6661C13.9366 18.6661 14.0026 18.6662 14.0707 18.6662C14.173 18.6659 14.173 18.6659 14.2774 18.6655C14.4218 18.6653 14.5662 18.6652 14.7105 18.6655C14.9309 18.6656 15.1513 18.6644 15.3717 18.6632C15.512 18.663 15.6524 18.663 15.7927 18.6631C15.8913 18.6624 15.8913 18.6624 15.9918 18.6617C16.4326 18.6639 16.732 18.6898 17.0669 18.9618C17.2354 19.1594 17.2675 19.3768 17.309 19.6164C17.3276 19.7112 17.3462 19.806 17.3648 19.9008C17.3739 19.9487 17.3829 19.9966 17.3923 20.046C17.7531 21.9343 18.4569 23.5625 19.8656 25.0364C19.9384 25.1133 20.0092 25.1917 20.0768 25.2722C20.1681 25.3833 20.1681 25.3833 20.3225 25.5097C20.4942 25.5215 20.4942 25.5215 20.6641 25.4595C21.3137 25.2752 21.9813 25.2993 22.5996 25.5599C22.7652 25.6488 22.9106 25.7473 23.055 25.8611C23.1031 25.8984 23.1513 25.9357 23.2009 25.9741C23.647 26.4181 24.0227 26.9551 24.0227 27.5682C24.0838 27.5651 24.1448 27.562 24.2077 27.5588C24.8726 27.5619 25.4599 27.7872 25.944 28.1833C26.2855 28.5093 26.4827 28.869 26.6342 29.2879C26.6465 29.3217 26.6587 29.3555 26.6714 29.3904C26.7399 29.593 26.7599 29.7681 26.7552 29.9783C26.192 29.9829 25.6288 29.9865 25.0656 29.9887C24.8039 29.9897 24.5423 29.9911 24.2807 29.9934C24.0275 29.9956 23.7743 29.9968 23.5211 29.9973C23.4253 29.9977 23.3294 29.9984 23.2336 29.9995C21.9437 30.0137 20.9045 29.7193 19.9619 28.9102C17.8216 26.9165 16.6417 23.3946 16.2239 20.7399C16.1448 23.8119 17.0702 27.3157 19.3615 29.7133C19.4687 29.8276 19.4687 29.8276 19.5825 29.9783C16.558 29.9783 13.5336 29.9783 10.4174 29.9783C10.536 29.8039 10.6162 29.692 10.7661 29.5515C11.0418 29.2777 11.2732 28.9792 11.499 28.6728C11.5333 28.6266 11.5333 28.6266 11.5682 28.5793C12.5841 27.1865 13.0832 25.5525 13.4914 23.9532C13.5103 23.8825 13.5292 23.8119 13.5481 23.7412C13.8169 22.6715 13.8617 21.5801 13.833 20.4888C13.8285 20.519 13.824 20.5491 13.8193 20.5801C13.4661 22.8669 12.5455 25.0101 11.3852 27.0662C11.3617 27.1079 11.3383 27.1497 11.3142 27.1928C10.6683 28.3374 9.83203 29.3632 8.42502 29.8276C7.79597 29.9802 7.1894 29.9987 6.54134 29.993C6.44557 29.9927 6.34979 29.9925 6.25401 29.9923C6.00498 29.9918 5.75597 29.9903 5.50695 29.9886C5.25162 29.9871 4.99628 29.9864 4.74095 29.9856C4.24221 29.984 3.74348 29.9815 3.24475 29.9783C3.25285 29.8902 3.26123 29.8022 3.26973 29.7142C3.27668 29.6407 3.27668 29.6407 3.28377 29.5657C3.34339 29.1004 3.57158 28.6651 3.92786 28.3214C3.97156 28.276 3.97156 28.276 4.01614 28.2298C4.39195 27.8651 4.90669 27.6188 5.46486 27.5682C5.65511 27.5616 5.84389 27.5619 6.03412 27.5682C6.02943 27.5144 6.02473 27.4605 6.01989 27.4051C6.02467 26.8084 6.3845 26.3352 6.82397 25.908C7.33644 25.472 7.98657 25.3452 8.67407 25.3471C8.91159 25.3609 9.10973 25.4067 9.33094 25.4816C9.4783 25.5164 9.53747 25.5141 9.67739 25.4595C10.201 25.0462 10.603 24.518 10.9867 24.0034C11.0125 23.9689 11.0383 23.9344 11.0648 23.8989C11.4833 23.3295 11.7628 22.7359 12.0114 22.0955C12.0269 22.0573 12.0424 22.0192 12.0584 21.9799C12.3319 21.3043 12.4559 20.609 12.5754 19.902C12.5821 19.8635 12.5888 19.825 12.5957 19.7854C12.6082 19.7129 12.6203 19.6404 12.6318 19.5679C12.6808 19.2861 12.7636 19.0653 13.004 18.8696C13.2412 18.7267 13.3943 18.6688 13.6845 18.6675Z" fill="#36A49F"/>
<path fill-rule="evenodd" clip-rule="evenodd" d="M14.0316 0.639103C14.352 0.270804 14.6491 -0.0372362 15.2058 0.00365418C15.8094 0.246708 16.2076 0.926744 16.5614 1.39687C16.5834 1.42597 16.6053 1.45536 16.6279 1.48534C17.3499 2.44468 17.9349 3.45001 18.2905 4.5602C18.3041 4.60194 18.3176 4.6439 18.3315 4.68691C18.5925 5.54314 18.6422 6.36989 18.6274 7.25243C18.6245 7.44441 18.623 7.63642 18.6221 7.82841C18.6217 7.927 18.6217 7.92716 18.6213 8.02763C18.6211 8.07742 18.6212 8.07766 18.621 8.12841C18.6189 8.57365 18.6152 9.019 18.6075 9.4642C18.6018 9.79961 18.5998 10.1349 18.6002 10.4704C18.5996 10.5971 18.5979 10.724 18.5946 10.8507C18.5776 11.5328 18.5821 12.043 19.1304 12.5597C19.1941 12.6158 19.2588 12.6714 19.3241 12.726C19.476 12.8566 19.6079 13.0012 19.7422 13.1458C19.8923 13.3029 20.0436 13.459 20.198 13.6128C20.8353 14.2595 21.0632 14.8586 21.1549 15.6954C21.1623 15.7607 21.1698 15.8262 21.1774 15.8935C21.193 16.0315 21.2085 16.1695 21.2237 16.3075C21.2431 16.4835 21.2628 16.6595 21.2829 16.8354C21.3021 17.0045 21.3211 17.1736 21.34 17.3427C21.3471 17.4054 21.3541 17.4682 21.3614 17.5329C21.3943 17.8336 21.4191 18.1283 21.4106 18.4304C20.9981 18.2476 20.6166 18.0354 20.2346 17.8081C19.7736 17.5338 19.3093 17.2637 18.8445 16.9944C18.7077 16.915 18.5708 16.8356 18.4341 16.7562C18.3489 16.7068 18.2635 16.6575 18.1783 16.6081C18.1386 16.585 18.0988 16.5619 18.0579 16.5381C17.8605 16.4228 17.8604 16.4228 17.6536 16.3216C17.646 16.3827 17.6385 16.4438 17.6307 16.5067C17.6206 16.5883 17.6104 16.67 17.6003 16.7515C17.5929 16.8117 17.5926 16.8118 17.585 16.8732C17.5776 16.9326 17.5777 16.9327 17.5701 16.9933C17.5656 17.0293 17.5612 17.0653 17.5566 17.1023C17.5348 17.2608 17.5084 17.4188 17.4828 17.5768H12.5302C12.3594 16.6731 12.3594 16.673 12.3594 16.3216C11.8828 16.5812 11.4094 16.8438 10.9446 17.1195C10.6083 17.3186 10.269 17.5138 9.92947 17.7086C9.48533 17.9636 9.04195 18.2195 8.60233 18.4805C8.50928 18.3163 8.56415 18.1402 8.58563 17.9623C8.59045 17.9201 8.59531 17.8777 8.60027 17.8342C8.61606 17.6961 8.63235 17.5579 8.64861 17.4199C8.6705 17.2313 8.69207 17.0424 8.71365 16.8537C8.71898 16.8074 8.72428 16.761 8.72977 16.7133C8.7651 16.4021 8.7939 16.0909 8.81824 15.7788C8.90159 14.7251 9.31563 14.0818 10.1014 13.303C10.2452 13.1599 10.3866 13.015 10.5271 12.8695C10.5732 12.8222 10.6194 12.7749 10.6669 12.7261C10.6906 12.6993 10.7145 12.6726 10.7389 12.645C10.8225 12.5559 10.8226 12.556 10.9355 12.4639C11.4526 11.9773 11.3373 11.339 11.3287 10.7146C11.3287 10.5874 11.3288 10.46 11.3293 10.3329C11.3299 10.0327 11.3287 9.73257 11.3263 9.43241C11.322 8.86547 11.3216 8.29824 11.322 7.73129C11.3217 7.54696 11.3202 7.36263 11.3184 7.17831C11.3053 4.73691 12.2947 2.67783 13.9426 0.744279C13.9865 0.692251 13.9868 0.692139 14.0316 0.639103ZM16.5068 5.34755C16.0147 4.96198 15.4386 4.7699 14.8103 4.8038C14.3255 4.8514 13.9277 5.00323 13.5402 5.29877C13.0993 5.69943 12.785 6.15624 12.7512 6.75717C12.7336 7.58967 12.9127 8.20382 13.5134 8.82157C13.9742 9.11798 14.3973 9.29409 14.9534 9.29999C15.6778 9.27999 16.1945 9.03345 16.7051 8.53358C17.141 7.99753 17.261 7.45251 17.2493 6.77856C17.2037 6.25306 16.8908 5.70593 16.5068 5.34755Z" fill="#36A49F"/>
</svg>
