<svg width="42" height="49" viewBox="0 0 42 49" fill="none" xmlns="http://www.w3.org/2000/svg">
<g filter="url(#filter0_i_238_54)">
<path d="M1 6.43158C3.05389 6.43158 5.10778 6.43158 7.22391 6.43158C8.28554 7.65605 8.28554 7.65605 8.76892 8.2587C9.00259 8.54905 9.24221 8.83548 9.48197 9.12193C9.52692 9.17563 9.57186 9.22933 9.61817 9.28466C9.75615 9.44942 9.89419 9.61413 10.0323 9.77882C10.7646 10.6526 11.49 11.5305 12.2095 12.4126C12.8034 13.1416 12.8034 13.1416 13.4099 13.8625C13.4881 13.9548 13.4881 13.9548 13.5679 14.0489C13.6705 14.1699 13.7741 14.2901 13.8787 14.4098C14.0194 14.571 14.1583 14.7334 14.297 14.8959C14.3427 14.9475 14.3883 14.9991 14.4354 15.0522C14.4769 15.1013 14.5184 15.1505 14.5611 15.2011C14.5989 15.2447 14.6367 15.2883 14.6756 15.3333C14.7381 15.4691 14.7381 15.4691 14.6871 15.6359C14.5909 15.7963 14.4894 15.9369 14.3657 16.0818C14.3222 16.1333 14.2786 16.1848 14.2337 16.2379C14.164 16.3192 14.164 16.3192 14.093 16.4022C13.9963 16.5169 13.8996 16.6316 13.803 16.7463C13.6722 16.9009 13.5412 17.0554 13.4093 17.2093C12.5251 18.2429 11.8829 19.3317 11.8112 20.6448C11.8079 20.7008 11.8046 20.7568 11.8013 20.8144C11.7933 20.9517 11.7856 21.0891 11.778 21.2264C11.4716 20.9791 11.2422 20.6891 11 20.3938C10.6077 19.9195 10.2094 19.4498 9.80455 18.9838C9.12868 18.2047 8.46959 17.4153 7.81555 16.6219C7.73439 16.5234 7.73439 16.5234 7.65159 16.423C7.61064 16.3733 7.5697 16.3237 7.52751 16.2725C7.52782 16.3496 7.52813 16.4266 7.52845 16.506C7.53561 18.3368 7.53884 20.1676 7.53727 21.9984C7.53707 22.2239 7.53692 22.4493 7.53678 22.6748C7.53674 22.7422 7.53674 22.7422 7.53669 22.8109C7.53632 23.5371 7.53862 24.2633 7.54191 24.9895C7.54523 25.735 7.54561 26.4805 7.54345 27.2261C7.54232 27.6447 7.54253 28.0632 7.54592 28.4819C7.54907 28.876 7.54866 29.2701 7.54554 29.6643C7.54502 29.8088 7.54579 29.9533 7.54796 30.0978C7.56332 31.19 7.56332 31.19 7.28441 31.5523C7.09512 31.7048 6.91233 31.8223 6.6926 31.9376C6.61755 31.9927 6.54251 32.0479 6.46519 32.1047C6.40404 32.1476 6.34289 32.1905 6.27989 32.2347C5.91754 32.4931 5.57428 32.766 5.2315 33.0443C4.96115 33.2583 4.67927 33.4582 4.39658 33.6593C4.18171 33.8166 3.9758 33.98 3.7704 34.1468C3.43133 34.422 3.0809 34.6801 2.72231 34.9352C2.51902 35.0833 2.32367 35.2368 2.12903 35.3936C1.18068 36.1551 1.18068 36.1551 1 36.1551C1 26.3464 1 16.5376 1 6.43158Z" fill="url(#paint0_radial_238_54)" style="mix-blend-mode:lighten"/>
</g>
<g filter="url(#filter1_i_238_54)">
<path d="M34.7761 6.43158C36.83 6.43158 38.8838 6.43158 41 6.43158C41 16.2404 41 26.0491 41 36.1551C40.5731 35.9292 40.5731 35.9293 40.3744 35.7749C40.3301 35.7408 40.2858 35.7066 40.2402 35.6715C40.1935 35.635 40.1468 35.5986 40.0986 35.561C39.997 35.4825 39.8953 35.4039 39.7936 35.3254C39.7418 35.2853 39.6901 35.2452 39.6368 35.2039C39.3948 35.0166 39.1514 34.8306 38.9079 34.6447C38.8609 34.6087 38.8139 34.5727 38.7654 34.5357C38.2722 34.1588 37.7766 33.7845 37.2808 33.4104C36.6779 32.9555 36.0762 32.4995 35.4771 32.0406C35.433 32.0068 35.3888 31.973 35.3433 31.9381C35.2825 31.8905 35.2825 31.8905 35.2205 31.842C35.0833 31.7361 35.0833 31.7361 34.9401 31.651C34.737 31.5205 34.5775 31.4154 34.4993 31.1995C34.4802 31.0364 34.478 30.879 34.4816 30.715C34.4804 30.6222 34.4804 30.6222 34.4793 30.5275C34.4774 30.3206 34.4792 30.1138 34.4811 29.9068C34.4805 29.7583 34.4797 29.6099 34.4786 29.4614C34.4764 29.0585 34.4775 28.6557 34.4792 28.2528C34.4804 27.8317 34.4785 27.4106 34.4771 26.9895C34.4749 26.2828 34.4747 25.5761 34.4759 24.8694C34.477 24.1415 34.4771 23.4137 34.4757 22.6859C34.4756 22.641 34.4755 22.5961 34.4754 22.5498C34.475 22.3247 34.4745 22.0995 34.4741 21.8743C34.4702 20.007 34.4701 18.1398 34.4725 16.2725C34.442 16.309 34.4116 16.3455 34.3802 16.3831C34.2408 16.5502 34.1014 16.7172 33.9619 16.8843C33.8901 16.9704 33.8901 16.9704 33.8168 17.0583C33.4832 17.4578 33.1457 17.8541 32.8026 18.2474C32.2366 18.8996 31.6829 19.5594 31.1328 20.2222C31.0489 20.3231 30.965 20.424 30.8811 20.5248C30.6866 20.7586 30.4922 20.9925 30.2979 21.2264C30.2478 21.2043 30.1977 21.1822 30.1461 21.1595C30.1496 21.089 30.1531 21.0185 30.1568 20.9458C30.2162 19.2529 29.3598 18.0639 28.2296 16.7613C28.0203 16.5185 27.8167 16.2721 27.6129 16.0256C27.5443 15.9431 27.4757 15.8605 27.4071 15.778C27.3592 15.7202 27.3112 15.6625 27.2618 15.603C27.4927 15.2277 27.7592 14.8901 28.0493 14.5487C28.1447 14.4354 28.2401 14.3222 28.3354 14.209C28.384 14.1515 28.4326 14.0939 28.4827 14.0347C28.7108 13.7645 28.9375 13.4935 29.1641 13.2223C29.208 13.1698 29.2519 13.1172 29.2972 13.0631C29.8038 12.4563 30.3031 11.845 30.8016 11.233C31.2722 10.6554 31.7465 10.0809 32.2322 9.51319C32.5543 9.13584 32.8681 8.75348 33.1806 8.36996C33.5441 7.92435 33.9129 7.48228 34.2833 7.04106C34.3256 6.99052 34.368 6.93997 34.4117 6.8879C34.4491 6.84333 34.4866 6.79877 34.5251 6.75285C34.6118 6.64761 34.6943 6.53978 34.7761 6.43158Z" fill="url(#paint1_radial_238_54)" style="mix-blend-mode:lighten"/>
</g>
<g filter="url(#filter2_di_238_54)">
<path d="M19.246 24.89C19.3687 24.889 19.3687 24.889 19.494 24.8881C19.5821 24.8881 19.6701 24.8882 19.7609 24.8883C19.8973 24.8878 19.8973 24.8878 20.0365 24.8874C20.229 24.887 20.4215 24.887 20.614 24.8873C20.9079 24.8875 21.2017 24.8859 21.4955 24.8842C21.6826 24.884 21.8698 24.884 22.0569 24.8841C22.1883 24.8831 22.1883 24.8831 22.3224 24.8822C22.91 24.8852 23.3093 24.9198 23.7558 25.2823C23.9805 25.5459 24.0233 25.8358 24.0787 26.1552C24.1034 26.2816 24.1282 26.408 24.1531 26.5344C24.1651 26.5983 24.1772 26.6622 24.1897 26.728C24.6707 29.2458 25.6092 31.4167 27.4874 33.3819C27.5845 33.4844 27.6789 33.589 27.7691 33.6962C27.8908 33.8444 27.8908 33.8444 28.0967 34.0129C28.3255 34.0286 28.3255 34.0286 28.5521 33.946C29.4182 33.7002 30.3084 33.7323 31.1327 34.0798C31.3536 34.1983 31.5475 34.3297 31.7399 34.4815C31.8041 34.5312 31.8683 34.5809 31.9344 34.6321C32.5293 35.2241 33.0303 35.9402 33.0303 36.7576C33.1117 36.7535 33.1931 36.7494 33.2769 36.7451C34.1634 36.7492 34.9465 37.0496 35.5919 37.5777C36.0473 38.0124 36.3103 38.492 36.5122 39.0505C36.5286 39.0956 36.5449 39.1407 36.5618 39.1871C36.6532 39.4573 36.6799 39.6907 36.6735 39.971C35.9226 39.9772 35.1717 39.982 34.4207 39.9849C34.0719 39.9863 33.7231 39.9881 33.3743 39.9912C33.0367 39.9941 32.6991 39.9957 32.3614 39.9964C32.2336 39.9969 32.1058 39.9979 31.978 39.9993C30.2583 40.0182 28.8727 39.6258 27.6158 38.5469C24.7621 35.8886 23.1889 31.1927 22.6318 27.6531C22.5264 31.7492 23.7602 36.4209 26.8153 39.6177C26.9582 39.7702 26.9582 39.7702 27.11 39.971C23.0773 39.971 19.0447 39.971 14.8899 39.971C15.048 39.7385 15.1548 39.5894 15.3548 39.402C15.7223 39.037 16.031 38.639 16.332 38.2304C16.3777 38.1687 16.3777 38.1687 16.4243 38.1058C17.7788 36.2487 18.4442 34.07 18.9885 31.9376C19.0137 31.8434 19.0389 31.7491 19.0641 31.6549C19.4224 30.2287 19.4822 28.7735 19.4439 27.3184C19.4379 27.3586 19.4319 27.3988 19.4257 27.4402C18.9548 30.4892 17.7273 33.3468 16.1802 36.0882C16.149 36.1439 16.1177 36.1996 16.0856 36.257C15.2243 37.7832 14.1093 39.1509 12.2333 39.7702C11.3946 39.9735 10.5858 39.9982 9.72175 39.9906C9.59405 39.9902 9.46634 39.99 9.33864 39.9898C9.0066 39.989 8.67459 39.987 8.34256 39.9848C8.00212 39.9827 7.66167 39.9818 7.32122 39.9808C6.65624 39.9787 5.99127 39.9753 5.32629 39.971C5.33709 39.8536 5.34827 39.7363 5.35959 39.6189C5.36887 39.5209 5.36887 39.5209 5.37832 39.4209C5.45782 38.8005 5.76207 38.2201 6.23711 37.7618C6.29537 37.7014 6.29537 37.7014 6.35482 37.6397C6.8559 37.1534 7.54221 36.8251 8.28644 36.7576C8.54011 36.7488 8.79181 36.7492 9.04546 36.7576C9.0392 36.6858 9.03293 36.614 9.02648 36.5401C9.03285 35.7445 9.51262 35.1136 10.0986 34.544C10.7819 33.9627 11.6487 33.7936 12.5654 33.7961C12.8821 33.8145 13.1463 33.8756 13.4412 33.9755C13.6377 34.0219 13.7166 34.0188 13.9031 33.946C14.6013 33.395 15.1373 32.6907 15.6489 32.0046C15.6833 31.9585 15.7176 31.9125 15.7531 31.8651C16.3111 31.106 16.6837 30.3145 17.0151 29.4606C17.0358 29.4098 17.0565 29.3589 17.0779 29.3065C17.4425 28.4057 17.6079 27.4786 17.7672 26.536C17.7761 26.4847 17.785 26.4334 17.7942 26.3805C17.8109 26.2839 17.827 26.1872 17.8423 26.0905C17.9077 25.7148 18.0182 25.4203 18.3386 25.1594C18.6549 24.9689 18.859 24.8917 19.246 24.89Z" fill="url(#paint2_linear_238_54)" style="mix-blend-mode:lighten" shape-rendering="crispEdges"/>
</g>
<g filter="url(#filter3_i_238_54)">
<g clip-path="url(#paint3_diamond_238_54_clip_path)" data-figma-skip-parse="true"><g transform="matrix(0.000235326 -0.0197255 0.00348289 4.1551e-05 20.7647 23.0588)"><rect x="0" y="0" width="1174.13" height="2527.41" fill="url(#paint3_diamond_238_54)" opacity="1" shape-rendering="crispEdges"/><rect x="0" y="0" width="1174.13" height="2527.41" transform="scale(1 -1)" fill="url(#paint3_diamond_238_54)" opacity="1" shape-rendering="crispEdges"/><rect x="0" y="0" width="1174.13" height="2527.41" transform="scale(-1 1)" fill="url(#paint3_diamond_238_54)" opacity="1" shape-rendering="crispEdges"/><rect x="0" y="0" width="1174.13" height="2527.41" transform="scale(-1)" fill="url(#paint3_diamond_238_54)" opacity="1" shape-rendering="crispEdges"/></g></g><path fill-rule="evenodd" clip-rule="evenodd" d="M19.7088 0.852137C20.136 0.361072 20.5322 -0.0496483 21.2745 0.00487224C22.0792 0.328944 22.6101 1.23566 23.0819 1.86249C23.1112 1.90129 23.1403 1.94048 23.1705 1.98046C24.1332 3.25957 24.9132 4.60001 25.3873 6.08026C25.4054 6.13591 25.4234 6.19187 25.442 6.2492C25.7901 7.39085 25.8563 8.49319 25.8366 9.6699C25.8326 9.92587 25.8306 10.1819 25.8295 10.4379C25.829 10.5693 25.8289 10.5695 25.8284 10.7035C25.8281 10.7699 25.8283 10.7702 25.828 10.8379C25.8252 11.4315 25.8202 12.0253 25.81 12.6189C25.8023 13.0661 25.7997 13.5133 25.8002 13.9605C25.7995 14.1295 25.7972 14.2987 25.7928 14.4676C25.7701 15.3771 25.7762 16.0573 26.5073 16.7463C26.5922 16.821 26.6784 16.8952 26.7655 16.9679C26.968 17.1421 27.1439 17.3349 27.3229 17.5277C27.523 17.7372 27.7248 17.9453 27.9307 18.1504C28.7803 19.0127 29.0842 19.8114 29.2065 20.9271C29.2164 21.0143 29.2264 21.1016 29.2366 21.1914C29.2574 21.3753 29.278 21.5593 29.2983 21.7433C29.3241 21.978 29.3504 22.2127 29.3772 22.4472C29.4028 22.6726 29.4282 22.8982 29.4534 23.1236C29.4628 23.2072 29.4721 23.291 29.4819 23.3771C29.5257 23.7781 29.5588 24.171 29.5475 24.5738C28.9975 24.3302 28.4889 24.0472 27.9795 23.7441C27.3648 23.3784 26.7457 23.0183 26.126 22.6592C25.9436 22.5534 25.7611 22.4475 25.5788 22.3416C25.4652 22.2757 25.3513 22.21 25.2377 22.1441C25.1848 22.1133 25.1318 22.0825 25.0772 22.0508C24.814 21.897 24.8139 21.897 24.5381 21.7621C24.5281 21.8435 24.518 21.925 24.5077 22.009C24.4941 22.1177 24.4806 22.2266 24.467 22.3353C24.4571 22.4156 24.4568 22.4157 24.4467 22.4976C24.4368 22.5768 24.4369 22.577 24.4268 22.6578C24.4208 22.7057 24.415 22.7537 24.4088 22.8031C24.3797 23.0143 24.3445 23.2251 24.3104 23.4357H17.7069C17.4792 22.2308 17.4791 22.2306 17.4791 21.7621C16.8438 22.1082 16.2125 22.4584 15.5928 22.826C15.1444 23.0915 14.692 23.3517 14.2393 23.6115C13.6471 23.9514 13.0559 24.2926 12.4698 24.6406C12.3457 24.4217 12.4189 24.1869 12.4475 23.9498C12.4539 23.8934 12.4604 23.837 12.467 23.7789C12.4881 23.5948 12.5098 23.4106 12.5315 23.2265C12.5607 22.975 12.5894 22.7232 12.6182 22.4717C12.6253 22.4098 12.6324 22.348 12.6397 22.2843C12.6868 21.8694 12.7252 21.4545 12.7577 21.0385C12.8688 19.6335 13.4208 18.7757 14.4686 17.7373C14.6602 17.5466 14.8487 17.3533 15.0362 17.1594C15.0977 17.0963 15.1592 17.0332 15.2225 16.9681C15.2541 16.9324 15.286 16.8967 15.3186 16.8599C15.4301 16.7413 15.4301 16.7413 15.5807 16.6185C16.2701 15.9697 16.1164 15.1186 16.1049 14.2861C16.1049 14.1166 16.1051 13.9467 16.1057 13.7771C16.1065 13.3769 16.1049 12.9768 16.1018 12.5765C16.0959 11.8206 16.0955 11.0643 16.0959 10.3084C16.0956 10.0626 16.0935 9.81684 16.0913 9.57108C16.0737 6.31588 17.3929 3.57043 19.5901 0.992372C19.6487 0.923001 19.6491 0.922852 19.7088 0.852137ZM23.009 7.13006C22.353 6.61597 21.5848 6.35986 20.7471 6.40506C20.1006 6.46853 19.5703 6.67097 19.0536 7.06502C18.4657 7.59924 18.0466 8.20832 18.0016 9.00955C17.9781 10.1196 18.2169 10.9384 19.0178 11.7621C19.6323 12.1573 20.1964 12.3921 20.9379 12.4C21.9037 12.3733 22.5926 12.0446 23.2735 11.3781C23.8547 10.6634 24.0147 9.93668 23.9991 9.03807C23.9383 8.33741 23.5211 7.6079 23.009 7.13006Z" data-figma-gradient-fill="{&#34;type&#34;:&#34;GRADIENT_DIAMOND&#34;,&#34;stops&#34;:[{&#34;color&#34;:{&#34;r&#34;:0.15686275064945221,&#34;g&#34;:0.38431373238563538,&#34;b&#34;:0.50588238239288330,&#34;a&#34;:1.0},&#34;position&#34;:0.0},{&#34;color&#34;:{&#34;r&#34;:0.15686275064945221,&#34;g&#34;:0.38431373238563538,&#34;b&#34;:0.50588238239288330,&#34;a&#34;:1.0},&#34;position&#34;:0.50},{&#34;color&#34;:{&#34;r&#34;:0.094117648899555206,&#34;g&#34;:0.23137255012989044,&#34;b&#34;:0.30588236451148987,&#34;a&#34;:1.0},&#34;position&#34;:1.0}],&#34;stopsVar&#34;:[{&#34;color&#34;:{&#34;r&#34;:0.15686275064945221,&#34;g&#34;:0.38431373238563538,&#34;b&#34;:0.50588238239288330,&#34;a&#34;:1.0},&#34;position&#34;:0.0},{&#34;color&#34;:{&#34;r&#34;:0.15686275064945221,&#34;g&#34;:0.38431373238563538,&#34;b&#34;:0.50588238239288330,&#34;a&#34;:1.0},&#34;position&#34;:0.50},{&#34;color&#34;:{&#34;r&#34;:0.094117648899555206,&#34;g&#34;:0.23137255012989044,&#34;b&#34;:0.30588236451148987,&#34;a&#34;:1.0},&#34;position&#34;:1.0}],&#34;transform&#34;:{&#34;m00&#34;:0.47065204381942749,&#34;m01&#34;:6.9657702445983887,&#34;m02&#34;:17.046461105346680,&#34;m10&#34;:-39.450962066650391,&#34;m11&#34;:0.083101995289325714,&#34;m12&#34;:42.742740631103516},&#34;opacity&#34;:1.0,&#34;blendMode&#34;:&#34;LIGHTEN&#34;,&#34;visible&#34;:true}" style="mix-blend-mode:lighten"/>
</g>
<g filter="url(#filter4_if_238_54)">
<circle cx="20.7647" cy="9.41176" r="2.79412" stroke="black" stroke-opacity="0.5"/>
</g>
<defs>
<filter id="filter0_i_238_54" x="1" y="6.43158" width="13.724" height="31.7236" filterUnits="userSpaceOnUse" color-interpolation-filters="sRGB">
<feFlood flood-opacity="0" result="BackgroundImageFix"/>
<feBlend mode="normal" in="SourceGraphic" in2="BackgroundImageFix" result="shape"/>
<feColorMatrix in="SourceAlpha" type="matrix" values="0 0 0 0 0 0 0 0 0 0 0 0 0 0 0 0 0 0 127 0" result="hardAlpha"/>
<feOffset dy="2"/>
<feGaussianBlur stdDeviation="2"/>
<feComposite in2="hardAlpha" operator="arithmetic" k2="-1" k3="1"/>
<feColorMatrix type="matrix" values="0 0 0 0 0 0 0 0 0 0 0 0 0 0 0 0 0 0 0.2 0"/>
<feBlend mode="plus-darker" in2="shape" result="effect1_innerShadow_238_54"/>
</filter>
<filter id="filter1_i_238_54" x="27.2618" y="6.43158" width="13.7382" height="31.7236" filterUnits="userSpaceOnUse" color-interpolation-filters="sRGB">
<feFlood flood-opacity="0" result="BackgroundImageFix"/>
<feBlend mode="normal" in="SourceGraphic" in2="BackgroundImageFix" result="shape"/>
<feColorMatrix in="SourceAlpha" type="matrix" values="0 0 0 0 0 0 0 0 0 0 0 0 0 0 0 0 0 0 127 0" result="hardAlpha"/>
<feOffset dy="2"/>
<feGaussianBlur stdDeviation="2"/>
<feComposite in2="hardAlpha" operator="arithmetic" k2="-1" k3="1"/>
<feColorMatrix type="matrix" values="0 0 0 0 0 0 0 0 0 0 0 0 0 0 0 0 0 0 0.2 0"/>
<feBlend mode="plus-darker" in2="shape" result="effect1_innerShadow_238_54"/>
</filter>
<filter id="filter2_di_238_54" x="0.326294" y="23.8822" width="41.3481" height="25.1178" filterUnits="userSpaceOnUse" color-interpolation-filters="sRGB">
<feFlood flood-opacity="0" result="BackgroundImageFix"/>
<feColorMatrix in="SourceAlpha" type="matrix" values="0 0 0 0 0 0 0 0 0 0 0 0 0 0 0 0 0 0 127 0" result="hardAlpha"/>
<feOffset dy="4"/>
<feGaussianBlur stdDeviation="2.5"/>
<feComposite in2="hardAlpha" operator="out"/>
<feColorMatrix type="matrix" values="0 0 0 0 0 0 0 0 0 0 0 0 0 0 0 0 0 0 0.25 0"/>
<feBlend mode="normal" in2="BackgroundImageFix" result="effect1_dropShadow_238_54"/>
<feBlend mode="normal" in="SourceGraphic" in2="effect1_dropShadow_238_54" result="shape"/>
<feColorMatrix in="SourceAlpha" type="matrix" values="0 0 0 0 0 0 0 0 0 0 0 0 0 0 0 0 0 0 127 0" result="hardAlpha"/>
<feOffset dy="1"/>
<feGaussianBlur stdDeviation="1.5"/>
<feComposite in2="hardAlpha" operator="arithmetic" k2="-1" k3="1"/>
<feColorMatrix type="matrix" values="0 0 0 0 0 0 0 0 0 0 0 0 0 0 0 0 0 0 0.2 0"/>
<feBlend mode="plus-darker" in2="shape" result="effect2_innerShadow_238_54"/>
</filter>
<filter id="filter3_i_238_54" x="12.3999" y="0" width="17.1498" height="26.6406" filterUnits="userSpaceOnUse" color-interpolation-filters="sRGB">
<feFlood flood-opacity="0" result="BackgroundImageFix"/>
<feBlend mode="normal" in="SourceGraphic" in2="BackgroundImageFix" result="shape"/>
<feColorMatrix in="SourceAlpha" type="matrix" values="0 0 0 0 0 0 0 0 0 0 0 0 0 0 0 0 0 0 127 0" result="hardAlpha"/>
<feOffset dy="2"/>
<feGaussianBlur stdDeviation="2"/>
<feComposite in2="hardAlpha" operator="arithmetic" k2="-1" k3="1"/>
<feColorMatrix type="matrix" values="0 0 0 0 0 0 0 0 0 0 0 0 0 0 0 0 0 0 0.15 0"/>
<feBlend mode="darken" in2="shape" result="effect1_innerShadow_238_54"/>
</filter>
<clipPath id="paint3_diamond_238_54_clip_path"><path fill-rule="evenodd" clip-rule="evenodd" d="M19.7088 0.852137C20.136 0.361072 20.5322 -0.0496483 21.2745 0.00487224C22.0792 0.328944 22.6101 1.23566 23.0819 1.86249C23.1112 1.90129 23.1403 1.94048 23.1705 1.98046C24.1332 3.25957 24.9132 4.60001 25.3873 6.08026C25.4054 6.13591 25.4234 6.19187 25.442 6.2492C25.7901 7.39085 25.8563 8.49319 25.8366 9.6699C25.8326 9.92587 25.8306 10.1819 25.8295 10.4379C25.829 10.5693 25.8289 10.5695 25.8284 10.7035C25.8281 10.7699 25.8283 10.7702 25.828 10.8379C25.8252 11.4315 25.8202 12.0253 25.81 12.6189C25.8023 13.0661 25.7997 13.5133 25.8002 13.9605C25.7995 14.1295 25.7972 14.2987 25.7928 14.4676C25.7701 15.3771 25.7762 16.0573 26.5073 16.7463C26.5922 16.821 26.6784 16.8952 26.7655 16.9679C26.968 17.1421 27.1439 17.3349 27.3229 17.5277C27.523 17.7372 27.7248 17.9453 27.9307 18.1504C28.7803 19.0127 29.0842 19.8114 29.2065 20.9271C29.2164 21.0143 29.2264 21.1016 29.2366 21.1914C29.2574 21.3753 29.278 21.5593 29.2983 21.7433C29.3241 21.978 29.3504 22.2127 29.3772 22.4472C29.4028 22.6726 29.4282 22.8982 29.4534 23.1236C29.4628 23.2072 29.4721 23.291 29.4819 23.3771C29.5257 23.7781 29.5588 24.171 29.5475 24.5738C28.9975 24.3302 28.4889 24.0472 27.9795 23.7441C27.3648 23.3784 26.7457 23.0183 26.126 22.6592C25.9436 22.5534 25.7611 22.4475 25.5788 22.3416C25.4652 22.2757 25.3513 22.21 25.2377 22.1441C25.1848 22.1133 25.1318 22.0825 25.0772 22.0508C24.814 21.897 24.8139 21.897 24.5381 21.7621C24.5281 21.8435 24.518 21.925 24.5077 22.009C24.4941 22.1177 24.4806 22.2266 24.467 22.3353C24.4571 22.4156 24.4568 22.4157 24.4467 22.4976C24.4368 22.5768 24.4369 22.577 24.4268 22.6578C24.4208 22.7057 24.415 22.7537 24.4088 22.8031C24.3797 23.0143 24.3445 23.2251 24.3104 23.4357H17.7069C17.4792 22.2308 17.4791 22.2306 17.4791 21.7621C16.8438 22.1082 16.2125 22.4584 15.5928 22.826C15.1444 23.0915 14.692 23.3517 14.2393 23.6115C13.6471 23.9514 13.0559 24.2926 12.4698 24.6406C12.3457 24.4217 12.4189 24.1869 12.4475 23.9498C12.4539 23.8934 12.4604 23.837 12.467 23.7789C12.4881 23.5948 12.5098 23.4106 12.5315 23.2265C12.5607 22.975 12.5894 22.7232 12.6182 22.4717C12.6253 22.4098 12.6324 22.348 12.6397 22.2843C12.6868 21.8694 12.7252 21.4545 12.7577 21.0385C12.8688 19.6335 13.4208 18.7757 14.4686 17.7373C14.6602 17.5466 14.8487 17.3533 15.0362 17.1594C15.0977 17.0963 15.1592 17.0332 15.2225 16.9681C15.2541 16.9324 15.286 16.8967 15.3186 16.8599C15.4301 16.7413 15.4301 16.7413 15.5807 16.6185C16.2701 15.9697 16.1164 15.1186 16.1049 14.2861C16.1049 14.1166 16.1051 13.9467 16.1057 13.7771C16.1065 13.3769 16.1049 12.9768 16.1018 12.5765C16.0959 11.8206 16.0955 11.0643 16.0959 10.3084C16.0956 10.0626 16.0935 9.81684 16.0913 9.57108C16.0737 6.31588 17.3929 3.57043 19.5901 0.992372C19.6487 0.923001 19.6491 0.922852 19.7088 0.852137ZM23.009 7.13006C22.353 6.61597 21.5848 6.35986 20.7471 6.40506C20.1006 6.46853 19.5703 6.67097 19.0536 7.06502C18.4657 7.59924 18.0466 8.20832 18.0016 9.00955C17.9781 10.1196 18.2169 10.9384 19.0178 11.7621C19.6323 12.1573 20.1964 12.3921 20.9379 12.4C21.9037 12.3733 22.5926 12.0446 23.2735 11.3781C23.8547 10.6634 24.0147 9.93668 23.9991 9.03807C23.9383 8.33741 23.5211 7.6079 23.009 7.13006Z" style="mix-blend-mode:lighten"/></clipPath><filter id="filter4_if_238_54" x="13.4706" y="2.11764" width="14.5883" height="16.5882" filterUnits="userSpaceOnUse" color-interpolation-filters="sRGB">
<feFlood flood-opacity="0" result="BackgroundImageFix"/>
<feBlend mode="normal" in="SourceGraphic" in2="BackgroundImageFix" result="shape"/>
<feColorMatrix in="SourceAlpha" type="matrix" values="0 0 0 0 0 0 0 0 0 0 0 0 0 0 0 0 0 0 127 0" result="hardAlpha"/>
<feOffset dy="6"/>
<feGaussianBlur stdDeviation="3"/>
<feComposite in2="hardAlpha" operator="arithmetic" k2="-1" k3="1"/>
<feColorMatrix type="matrix" values="0 0 0 0 0 0 0 0 0 0 0 0 0 0 0 0 0 0 0.25 0"/>
<feBlend mode="normal" in2="shape" result="effect1_innerShadow_238_54"/>
<feGaussianBlur stdDeviation="2" result="effect2_foregroundBlur_238_54"/>
</filter>
<radialGradient id="paint0_radial_238_54" cx="0" cy="0" r="1" gradientUnits="userSpaceOnUse" gradientTransform="translate(7.86203 21.2934) rotate(90) scale(14.8618 6.86203)">
<stop offset="0.5" stop-color="#183B4E"/>
<stop offset="1" stop-color="#286281"/>
</radialGradient>
<radialGradient id="paint1_radial_238_54" cx="0" cy="0" r="1" gradientUnits="userSpaceOnUse" gradientTransform="translate(34.1309 21.2934) rotate(90) scale(14.8618 6.86907)">
<stop offset="0.5" stop-color="#183B4E"/>
<stop offset="1" stop-color="#286281"/>
</radialGradient>
<linearGradient id="paint2_linear_238_54" x1="23.6662" y1="20" x2="21.0004" y2="40" gradientUnits="userSpaceOnUse">
<stop offset="0.629808" stop-color="#36A49F"/>
<stop offset="0.741329" stop-color="#36A49F" stop-opacity="0.59"/>
</linearGradient>
<linearGradient id="paint3_diamond_238_54" x1="0" y1="0" x2="500" y2="500" gradientUnits="userSpaceOnUse">
<stop stop-color="#286281"/>
<stop offset="0.5" stop-color="#286281"/>
<stop offset="1" stop-color="#183B4E"/>
</linearGradient>
</defs>
</svg>
